<?xml version="1.0" standalone="no"?>
<!DOCTYPE svg PUBLIC "-//W3C//DTD SVG 20010904//EN"
 "http://www.w3.org/TR/2001/REC-SVG-20010904/DTD/svg10.dtd">
<svg version="1.0" xmlns="http://www.w3.org/2000/svg"
 width="700.000000pt" height="700.000000pt" viewBox="0 0 700.000000 700.000000"
 preserveAspectRatio="xMidYMid meet">
<metadata>
Created by potrace 1.11, written by Peter Selinger 2001-2013
</metadata>
<g transform="translate(0.000000,700.000000) scale(0.100000,-0.100000)"
fill="#000000" stroke="none">
<path d="M4887 6945 c-15 -25 -27 -50 -27 -55 0 -6 -4 -10 -10 -10 -5 0 -10
-4 -10 -9 0 -18 -82 -151 -93 -151 -7 0 -115 22 -242 49 -126 27 -231 48 -232
47 -2 -2 145 -156 294 -307 l104 -105 -26 -75 c-15 -41 -31 -83 -35 -94 -24
-58 -59 -159 -57 -162 3 -3 43 22 242 150 59 37 111 67 116 67 6 0 56 -37 112
-82 56 -45 108 -87 115 -93 7 -5 20 -16 28 -24 23 -21 24 -10 3 49 -90 252
-94 263 -75 274 9 6 66 43 125 81 60 39 117 75 127 81 14 8 2 14 -67 28 -117
24 -116 24 -196 43 -40 9 -73 21 -73 27 1 18 -85 316 -90 316 -3 0 -17 -20
-33 -45z"/>
<path d="M3789 6868 c-12 -24 -34 -65 -49 -93 -15 -27 -53 -99 -85 -160 -32
-60 -77 -146 -100 -190 -66 -125 -137 -259 -205 -390 -61 -116 -120 -227 -125
-233 -1 -2 -33 4 -71 12 -38 9 -80 18 -94 20 -25 4 -135 27 -320 65 -52 11
-106 22 -120 25 -27 5 -61 12 -388 80 l-214 44 34 -37 c19 -20 57 -60 84 -90
27 -30 81 -88 119 -130 96 -102 108 -116 205 -222 47 -51 100 -109 119 -128
18 -20 65 -71 105 -115 39 -43 87 -95 106 -115 19 -20 45 -48 58 -62 l23 -26
-21 -52 c-11 -29 -72 -193 -135 -364 -64 -172 -120 -321 -124 -332 -5 -11 -24
-60 -41 -110 -18 -49 -36 -99 -41 -110 -20 -45 -51 -137 -47 -140 1 -1 84 26
183 62 206 73 204 73 208 71 1 -1 12 4 24 10 12 7 84 34 160 61 76 27 203 72
283 101 136 49 199 72 510 183 l126 45 49 -43 c28 -24 196 -165 375 -315 179
-150 345 -289 370 -310 25 -21 79 -66 120 -100 41 -34 77 -65 80 -69 12 -15
90 -72 90 -65 0 7 -278 756 -300 809 -4 11 -18 47 -30 80 -12 33 -26 69 -31
80 -17 38 -70 188 -67 190 9 5 90 39 228 95 85 35 207 84 270 110 63 26 123
50 133 53 9 4 17 10 17 15 0 4 -109 47 -242 95 -247 88 -387 138 -513 184 -38
14 -80 27 -92 30 -26 6 -7 -42 -263 648 -100 270 -186 499 -190 510 -12 25
-92 243 -116 313 -10 28 -22 52 -26 52 -4 0 -17 -19 -29 -42z"/>
<path d="M1947 5278 c-8 -18 -36 -78 -62 -133 -26 -55 -48 -101 -49 -103 -2
-1 -47 7 -102 19 -54 11 -142 30 -194 41 -52 11 -104 21 -115 24 -92 19 -92
23 1 -72 47 -49 132 -137 190 -195 57 -58 104 -113 104 -121 0 -8 -25 -81 -55
-162 -30 -80 -55 -148 -55 -151 0 -3 65 38 145 90 80 52 150 95 154 95 5 0 14
7 21 15 7 8 18 15 24 15 6 0 68 -47 139 -105 70 -57 127 -100 127 -95 0 5 -21
66 -46 135 -25 70 -46 138 -47 152 -2 22 14 35 125 106 70 45 124 85 120 88
-4 4 -43 14 -87 23 -44 9 -112 23 -152 32 l-72 16 -20 66 c-11 37 -31 107 -45
156 -14 49 -27 91 -30 93 -2 2 -10 -11 -19 -29z"/>
<path d="M3065 3613 c-4 -10 -67 -180 -141 -378 -74 -198 -139 -369 -144 -380
-5 -11 -48 -125 -95 -254 -48 -128 -90 -243 -95 -255 -12 -27 -520 -1387 -520
-1390 0 -1 167 -2 371 -2 l371 1 93 235 c132 334 279 706 332 840 24 63 49
124 54 135 5 11 79 198 164 415 86 217 168 424 182 460 48 123 43 122 81 23
19 -48 43 -107 53 -130 10 -24 19 -45 19 -48 0 -3 66 -173 146 -378 80 -204
166 -424 191 -487 25 -63 85 -216 133 -340 178 -454 333 -849 401 -1025 38
-99 74 -189 79 -200 5 -11 37 -92 71 -180 34 -88 72 -185 84 -215 l21 -55 372
-3 371 -2 -19 52 c-10 29 -36 100 -58 158 -21 58 -56 150 -76 205 -21 55 -41
109 -46 120 -9 19 -223 591 -325 865 -25 69 -50 134 -55 145 -12 28 -136 360
-177 475 -19 52 -40 109 -48 125 -7 17 -38 100 -70 185 -31 85 -60 164 -65
175 -5 11 -23 58 -41 105 -17 47 -46 123 -64 170 -17 47 -97 257 -175 468
l-144 382 -612 0 c-573 0 -612 -1 -619 -17z"/>
</g>
</svg>
